<?xml version="1.0" encoding="UTF-8"?>
<svg version="1.1" xmlns="http://www.w3.org/2000/svg" width="500" height="500">
<path d="M0 0 C1.37879958 0.54294472 2.76098188 1.07735821 4.14599609 1.60424805 C7.17780042 2.76663416 10.19093756 3.9663836 13.19775391 5.19189453 C18.29283806 7.24525351 23.45189552 9.08958884 28.63671875 10.90234375 C30.02368706 11.38726791 30.02368706 11.38726791 31.43867493 11.88198853 C33.36505239 12.55457826 35.29161555 13.22663633 37.21835327 13.89819336 C41.27629302 15.31861617 45.32610478 16.76147635 49.37605286 18.20449829 C64.6178604 23.63522292 79.89250267 28.97101434 95.1710968 34.29706192 C101.23416191 36.41070633 107.29684228 38.52545409 113.359375 40.640625 C114.02308861 40.87218103 114.68680222 41.10373707 115.37062836 41.34230995 C131.24226281 46.88033074 147.09955003 52.45897216 162.95385742 58.04638672 C174.24455258 62.02496891 185.53827305 65.99460212 196.83856201 69.94584274 C198.83411508 70.64370206 200.82955509 71.3418836 202.82495117 72.04019165 C203.47688824 72.26833998 204.1288253 72.4964883 204.80051804 72.73155022 C206.10749128 73.18894101 207.41446 73.64634476 208.7214241 74.10376167 C211.9031464 75.21711982 215.08529517 76.32922521 218.26800537 77.4397583 C221.78229038 78.66602319 225.29553398 79.8952302 228.80859375 81.125 C229.84766373 81.48661224 230.8867337 81.84822449 231.95729065 82.22079468 C237.08241539 84.0179762 242.10358833 85.90853315 247.0625 88.125 C246.0625 90.125 246.0625 90.125 243.76254272 91.05267334 C242.7353714 91.37270325 241.70820007 91.69273315 240.64990234 92.02246094 C239.47481613 92.39264847 238.29972992 92.762836 237.08903503 93.14424133 C235.77555029 93.54944075 234.46201611 93.95447997 233.1484375 94.359375 C231.77647491 94.7883084 230.40471942 95.21790469 229.03315735 95.64811707 C225.29039958 96.81991864 221.54469994 97.98205085 217.79842758 99.14255905 C213.82458124 100.37538288 209.85352222 101.61712404 205.88208008 102.85766602 C195.94600704 105.9589993 186.00475717 109.04355908 176.0625 112.125 C174.5221548 112.60251562 172.98181054 113.08003426 171.44146729 113.55755615 C159.75392503 117.18041944 148.06568032 120.8010304 136.37539673 124.41503906 C109.2370674 132.80481006 82.13488818 141.3072452 55.05156994 149.87290287 C51.53332867 150.98529384 48.01391912 152.09361665 44.49143982 153.19252014 C38.12272983 155.1832521 31.77195534 157.20592432 25.45917225 159.36851883 C22.565315 160.35667806 19.66394585 161.32156562 16.76156425 162.28435516 C15.40106776 162.74267473 14.04422993 163.21203791 12.69178963 163.69361115 C3.32542373 167.02499874 -2.60736845 167.47741269 -11.9375 164.125 C-14.31475295 163.38460572 -16.69281445 162.6468042 -19.0715332 161.91113281 C-21.71358537 161.05967734 -24.35061821 160.19306443 -26.98828125 159.328125 C-28.43619278 158.85682237 -29.88423493 158.38592085 -31.33239746 157.91539001 C-35.18030604 156.66416972 -39.02668155 155.40830152 -42.87274551 154.15142441 C-49.25962962 152.06543288 -55.64922585 149.98774913 -62.03857994 147.909338 C-63.63877346 147.38875299 -65.23891304 146.86800211 -66.83899879 146.34708595 C-77.21320449 142.97013257 -87.59709515 139.62740198 -98 136.33984375 C-99.66956001 135.81153458 -99.66956001 135.81153458 -101.37284851 135.27255249 C-106.46329615 133.66294011 -111.55586257 132.06052013 -116.65161133 130.46777344 C-118.42015368 129.90972396 -120.1886315 129.35146992 -121.95703125 128.79296875 C-122.74936157 128.54820297 -123.54169189 128.30343719 -124.35803223 128.05125427 C-129.71057011 126.35192989 -129.71057011 126.35192989 -131.9375 124.125 C-123.85277667 120.67172423 -115.70651661 117.51201391 -107.42578125 114.5625 C-106.24279449 114.13800064 -105.05980774 113.71350128 -103.8409729 113.27613831 C-101.29950377 112.36421541 -98.75770923 111.45327161 -96.21530151 110.54397583 C-89.40880187 108.10917869 -82.60649971 105.66269972 -75.8046875 103.21484375 C-75.10840429 102.96433699 -74.41212109 102.71383022 -73.69473839 102.45573235 C-56.04845472 96.10454364 -38.45583975 89.60920395 -20.87036133 83.09179688 C-7.93709104 78.30331721 5.02549268 73.62384743 18.0625 69.125 C13.75445451 66.4767291 10.00755454 64.82402619 4.90380859 65.61376953 C1.11736488 66.81668896 -2.56323573 68.2150066 -6.25 69.6875 C-7.71694652 70.24320273 -9.18535091 70.79506894 -10.6550293 71.34350586 C-13.93672799 72.57109305 -17.2118435 73.81459891 -20.484375 75.06640625 C-29.56944611 78.51996076 -38.74259732 81.73381999 -47.89874268 84.99282837 C-53.55832732 87.01038315 -59.21255334 89.04283958 -64.8671875 91.07421875 C-67.18975514 91.90810584 -69.51234649 92.7419269 -71.83496094 93.57568359 C-72.99926636 93.99364197 -74.16357178 94.41160034 -75.36315918 94.84222412 C-85.04214763 98.31586403 -94.72262814 101.78534508 -104.40292358 105.25534058 C-107.78665624 106.4683308 -111.17031558 107.68152532 -114.55395508 108.89477539 C-115.6084082 109.27276276 -116.66286133 109.65075012 -117.74926758 110.04019165 C-119.77460208 110.76645382 -121.79975533 111.49322171 -123.82470703 112.22055054 C-128.01786142 113.7257797 -132.21226167 115.22586045 -136.41870117 116.69360352 C-137.07427505 116.92346954 -137.72984894 117.15333557 -138.4052887 117.39016724 C-140.06407863 117.97049842 -141.72457693 118.54594065 -143.38525391 119.12084961 C-151.68547728 122.38647222 -156.62877203 130.40425886 -160.421875 138.16015625 C-163.9555949 146.38125166 -168.07597019 156.05057057 -165.9375 165.125 C-164.11916525 167.69133155 -162.17370356 169.77057229 -159.8828125 171.921875 C-155.18965056 177.23702226 -155.44552549 183.83404037 -155.56640625 190.58203125 C-156.58040171 200.26301944 -161.79326616 205.16970412 -168.9375 211.125 C-168.69628418 212.27778442 -168.69628418 212.27778442 -168.45019531 213.45385742 C-159.54525097 256.07627471 -159.54525097 256.07627471 -157.1875 273 C-157.05964111 273.90999756 -156.93178223 274.81999512 -156.80004883 275.75756836 C-155.62299788 284.61154275 -154.80397461 292.44589556 -160.28515625 299.9765625 C-166.78386936 306.69732731 -176.23270981 308.61583234 -184.9375 311.125 C-186.59265625 311.63933594 -186.59265625 311.63933594 -188.28125 312.1640625 C-198.32492956 315.05297033 -209.4598472 316.12230784 -218.9375 311.125 C-222.50961199 308.08490469 -224.58153186 305.97858065 -225.17578125 301.21484375 C-225.53155819 290.89731248 -220.61461832 283.39492261 -215.26953125 274.90625 C-203.78772818 256.48000727 -190.70891824 235.32080653 -189.9375 213.125 C-191.03771484 212.95484375 -191.03771484 212.95484375 -192.16015625 212.78125 C-199.80585717 210.97467088 -204.77726837 205.71203342 -208.84375 199.2734375 C-212.16625549 192.74708743 -212.14567966 184.21248632 -210.1015625 177.296875 C-206.79556446 170.06361755 -201.832787 164.72485002 -194.4375 161.6875 C-193.6125 161.501875 -192.7875 161.31625 -191.9375 161.125 C-191.80702774 160.39122635 -191.67655548 159.6574527 -191.54212952 158.90144348 C-190.98422077 156.3395406 -190.25122277 154.12383138 -189.26342773 151.7019043 C-188.92315048 150.86141037 -188.58287323 150.02091644 -188.23228455 149.154953 C-187.86559158 148.2620607 -187.49889862 147.3691684 -187.12109375 146.44921875 C-186.74517593 145.5240596 -186.36925812 144.59890045 -185.98194885 143.64570618 C-184.78376105 140.6996031 -183.57947011 137.75603946 -182.375 134.8125 C-181.56014282 132.81201349 -180.74568503 130.81136425 -179.93164062 128.81054688 C-177.93821937 123.91346884 -175.9397853 119.01845994 -173.9375 114.125 C-198.45020923 103.76468606 -223.44840324 95.66722827 -248.9375 88.125 C-248.9375 87.465 -248.9375 86.805 -248.9375 86.125 C-190.20898439 63.53710938 -190.20898439 63.53710938 -186.95179749 62.28434753 C-184.80908502 61.46022579 -182.66637465 60.63609861 -180.52366638 59.81196594 C-175.16369475 57.75041086 -169.80368539 55.68895399 -164.44360352 53.62768555 C-154.71675382 49.88703099 -144.99015044 46.14574354 -135.26493835 42.40083313 C-129.88514193 40.32924653 -124.50512689 38.25822817 -119.125 36.1875 C-118.06697174 35.78026703 -117.00894348 35.37303406 -115.91885376 34.95346069 C-103.36894796 30.12409327 -90.81355932 25.30936871 -78.25 20.515625 C-77.02428787 20.04793198 -75.79857574 19.58023895 -74.53572083 19.09837341 C-68.64780373 16.85223639 -62.75927589 14.60771692 -56.86987305 12.36547852 C-55.79058533 11.95350723 -54.71129761 11.54153595 -53.5993042 11.11708069 C-51.47511452 10.30872028 -49.34895433 9.50551714 -47.22076416 8.70774841 C-41.99182389 6.73608409 -36.84736354 4.66976627 -31.75024414 2.37695312 C-19.63325306 -2.98135393 -12.57272465 -5.61671889 0 0 Z " fill="#025D99" transform="translate(250.9375,98.875)"/>
<path d="M0 0 C3.70414983 20.70355172 3.63097601 43.27447802 0 64 C-0.15065918 64.86044922 -0.30131836 65.72089844 -0.45654297 66.60742188 C-7.68174484 106.16904595 -25.53246946 142.55011744 -53.57275391 171.52148438 C-55.05641746 173.05844409 -56.51772277 174.61501765 -57.98046875 176.171875 C-70.5763833 189.37401004 -85.26524785 199.85142273 -101 209 C-101.60489258 209.35400879 -102.20978516 209.70801758 -102.83300781 210.07275391 C-143.53150891 233.6019199 -194.95644698 241.33142524 -241 232 C-241.9389209 231.81195801 -242.8778418 231.62391602 -243.84521484 231.43017578 C-275.7876149 224.77925697 -305.03348575 210.79370388 -330.35791016 190.29443359 C-332.01008419 188.99205079 -333.70633294 187.77351795 -335.41796875 186.55078125 C-340.02076847 183.08245538 -343.42444997 180.03475123 -345.05078125 174.28515625 C-345.55949515 170.5085718 -345.66420373 166.72032996 -345.80761719 162.91552734 C-346.20710281 156.86139365 -347.22594227 150.87136695 -348.125 144.875 C-348.48248339 142.41416591 -348.83931066 139.95323636 -349.1953125 137.4921875 C-349.46314423 135.66140015 -349.73121293 133.83064734 -350 132 C-349.34 132 -348.68 132 -348 132 C-346.62649652 133.70254058 -345.32767455 135.46548617 -344.0625 137.25 C-339.17652122 143.97324342 -333.72619771 149.98833202 -328 156 C-326.95972656 157.13695312 -326.95972656 157.13695312 -325.8984375 158.296875 C-298.3268583 187.46526381 -254.57491807 206.65436386 -214.61572266 208.12451172 C-210.6393172 208.20695876 -206.66461883 208.24659112 -202.6875 208.25 C-201.97824371 208.25067474 -201.26898743 208.25134949 -200.53823853 208.25204468 C-188.80273214 208.23436799 -177.48620884 207.52215003 -166 205 C-164.83718506 204.75056641 -164.83718506 204.75056641 -163.65087891 204.49609375 C-117.38985084 194.25169959 -77.38639964 165.53600667 -51.875 125.8125 C-35.32584578 99.3343835 -24.70113311 68.03582735 -24.90234375 36.58984375 C-24.9037587 35.73693253 -24.90517365 34.8840213 -24.90663147 34.00526428 C-24.91217061 31.31597184 -24.9247112 28.62676672 -24.9375 25.9375 C-24.94252288 24.09961059 -24.9470844 22.26171985 -24.95117188 20.42382812 C-24.96212 15.94918578 -24.97934161 11.47460762 -25 7 C-21.39809458 5.82627027 -17.79312849 4.66223744 -14.1875 3.5 C-13.16333984 3.16613281 -12.13917969 2.83226562 -11.08398438 2.48828125 C-10.10107422 2.17246094 -9.11816406 1.85664063 -8.10546875 1.53125 C-7.19949951 1.23798828 -6.29353027 0.94472656 -5.36010742 0.64257812 C-3 0 -3 0 0 0 Z " fill="#DCB30B" transform="translate(447,212)"/>
<path d="M0 0 C0 28.05 0 56.1 0 85 C-5.07905432 87.25735748 -10.09494024 89.48459163 -15.23828125 91.55859375 C-51.7125234 106.37965128 -88.53672487 122.27685021 -118.22119141 148.80126953 C-121.81383623 152 -121.81383623 152 -124 152 C-124 114.38 -124 76.76 -124 38 C-85.28553167 25.79338592 -85.28553167 25.79338592 -70.4296875 21.1171875 C-67.09471532 20.06741853 -63.75975205 19.01762125 -60.42480469 17.96777344 C-59.61906321 17.71412836 -58.81332172 17.46048328 -57.98316383 17.19915199 C-52.948201 15.61395607 -47.91380649 14.02696912 -42.87988281 12.43847656 C-37.15096702 10.6307924 -31.42090735 8.82679438 -25.68969727 7.02639771 C-23.65162421 6.3853902 -21.61402306 5.74288027 -19.5769043 5.09884644 C-16.79467992 4.21950145 -14.01087082 3.34537607 -11.2265625 2.47265625 C-10.4238089 2.2175528 -9.6210553 1.96244934 -8.79397583 1.69961548 C-5.75605808 0.75246508 -3.20239555 0 0 0 Z " fill="#DCB307" transform="translate(382,243)"/>
<path d="M0 0 C5.09653025 1.08596725 10.1117025 2.24582876 15.08740234 3.80908203 C16.20343842 4.15770294 17.31947449 4.50632385 18.46932983 4.86550903 C20.25955063 5.43094925 20.25955063 5.43094925 22.0859375 6.0078125 C23.3856915 6.41535289 24.68555 6.82256016 25.98550415 7.22946167 C29.42912099 8.30833212 32.87132432 9.39164465 36.31323242 10.47595215 C39.61035712 11.51389247 42.90874594 12.54778469 46.20703125 13.58203125 C55.13902736 16.38481523 64.06944908 19.19261459 73 22 C98.245 29.92 98.245 29.92 124 38 C124 75.62 124 113.24 124 152 C120.31068805 150.15534403 118.10908664 148.45211209 115.0625 145.75 C102.31782198 134.82803137 87.68014642 125.92248182 72.90527344 118.02685547 C71.01964138 117.01058581 69.15392241 115.96397341 67.2890625 114.91015625 C48.38947118 104.38559327 27.92805235 96.3227284 7.74169922 88.62695312 C6.42129639 88.12325195 6.42129639 88.12325195 5.07421875 87.609375 C4.30682373 87.32030273 3.53942871 87.03123047 2.7487793 86.73339844 C1 86 1 86 0 85 C-0.09511266 82.35261911 -0.12555635 79.73140999 -0.11352539 77.08374023 C-0.11367142 76.25454071 -0.11381744 75.42534119 -0.1139679 74.5710144 C-0.11326851 71.81684802 -0.10547493 69.06274839 -0.09765625 66.30859375 C-0.09579216 64.40430234 -0.09436822 62.50001045 -0.09336853 60.59571838 C-0.08954263 55.57332037 -0.07971173 50.55095108 -0.06866455 45.52856445 C-0.05845198 40.4077188 -0.05387124 35.28686852 -0.04882812 30.16601562 C-0.03808953 20.11066443 -0.02101224 10.0553346 0 0 Z " fill="#01B3E4" transform="translate(115,243)"/>
<path d="M0 0 C1.05630112 -0.00101212 1.05630112 -0.00101212 2.13394165 -0.00204468 C14.53566644 0.01671845 26.56234038 0.87100631 38.75 3.25 C39.61061035 3.41628906 40.4712207 3.58257812 41.35791016 3.75390625 C61.17904965 7.72770069 80.00574827 14.5917364 97.75 24.25 C98.34184082 24.56404785 98.93368164 24.8780957 99.54345703 25.20166016 C133.16010982 43.07931274 168.37799649 75.31999122 182.75 111.25 C182.75 111.91 182.75 112.57 182.75 113.25 C168.58581857 111.18399713 147.3193971 105.84621203 138.25 94.0625 C136.64985581 91.8370982 135.20413844 89.57887162 133.75 87.25 C132.51259945 85.74275375 131.24607873 84.25838142 129.9375 82.8125 C129.39609375 82.20148438 128.8546875 81.59046875 128.296875 80.9609375 C127.78640625 80.39632812 127.2759375 79.83171875 126.75 79.25 C126.26015625 78.70601563 125.7703125 78.16203125 125.265625 77.6015625 C100.81697143 51.8215466 65.28666594 35.33602384 30.75 29.25 C29.07550781 28.91548828 29.07550781 28.91548828 27.3671875 28.57421875 C-16.01145256 21.17670124 -63.50536023 32.55567489 -99.578125 57.49609375 C-102.54048192 59.67133227 -105.40549845 61.9230343 -108.25 64.25 C-108.76868652 64.66862305 -109.28737305 65.08724609 -109.82177734 65.51855469 C-123.80568796 76.47421269 -123.80568796 76.47421269 -134.94555664 90.02880859 C-141.59603379 100.49279446 -149.82898251 103.17014229 -161.1875 107 C-162.91335366 107.61631838 -164.63797889 108.23608804 -166.36132812 108.859375 C-178.63430376 113.25 -178.63430376 113.25 -181.25 113.25 C-180.72851453 108.06582093 -178.13052007 104.26055452 -175.4375 99.9375 C-174.70370117 98.75196533 -174.70370117 98.75196533 -173.95507812 97.54248047 C-166.30401275 85.37320337 -157.67696141 74.06027322 -147.67724609 63.72851562 C-146.19358254 62.19155591 -144.73227723 60.63498235 -143.26953125 59.078125 C-106.60657468 20.64431763 -52.59059751 0.04557847 0 0 Z " fill="#DCB30B" transform="translate(244.25,38.75)"/>
<path d="M0 0 C5.06771827 0.65441401 9.55458213 2.0999806 14.3125 3.875 C15.04017578 4.13152344 15.76785156 4.38804687 16.51757812 4.65234375 C18.38146473 5.3437015 20.19646247 6.16375769 22 7 C23.36100664 11.08301991 21.90264936 13.66095108 20.38671875 17.484375 C20.09827591 18.21819397 19.80983307 18.95201294 19.51264954 19.70806885 C18.89506012 21.26363825 18.27178266 22.81695948 17.64331055 24.36816406 C16.70081044 26.716831 15.80251294 29.07942473 14.90429688 31.4453125 C11.41095144 40.29193592 8.23285072 46.95816034 -1 51 C-1.66 51 -2.32 51 -3 51 C-3.05039358 46.59327558 -3.0861752 42.186715 -3.10986328 37.77978516 C-3.11976443 36.28854442 -3.13328888 34.79732221 -3.15087891 33.30615234 C-3.45389851 6.90779703 -3.45389851 6.90779703 0 0 Z " fill="#DCB30C" transform="translate(44,208)"/>
<path d="M0 0 C0 1.65 0 3.3 0 5 C-0.66 4.34 -1.32 3.68 -2 3 C-4.42588727 3.19803161 -6.62460621 3.52759523 -9 4 C-10.20076172 4.20496094 -10.20076172 4.20496094 -11.42578125 4.4140625 C-12.23402344 4.56617188 -13.04226563 4.71828125 -13.875 4.875 C-15.01582031 5.08769531 -15.01582031 5.08769531 -16.1796875 5.3046875 C-16.78039062 5.53414062 -17.38109375 5.76359375 -18 6 C-18.33 6.99 -18.66 7.98 -19 9 C-19.99 9.33 -20.98 9.66 -22 10 C-21.99476318 10.97759277 -21.98952637 11.95518555 -21.98413086 12.96240234 C-21.96585499 16.63394229 -21.95448651 20.30547832 -21.94506836 23.97705078 C-21.94007927 25.55778686 -21.93328562 27.13851841 -21.92456055 28.71923828 C-21.87894101 37.20447173 -21.94276445 45.56658392 -23 54 C-23.12968794 55.54127939 -23.25522668 57.08291846 -23.375 58.625 C-23.86192033 63.10307056 -25.26640138 66.85443808 -27 71 C-28.07678066 67.42858737 -27.71228207 64.82127584 -27.02075195 61.15893555 C-23.7177911 43.34547113 -24.73553933 25.03621792 -25 7 C-21.39809458 5.82627027 -17.79312849 4.66223744 -14.1875 3.5 C-12.65125977 2.99919922 -12.65125977 2.99919922 -11.08398438 2.48828125 C-10.10107422 2.17246094 -9.11816406 1.85664063 -8.10546875 1.53125 C-6.74651489 1.09135742 -6.74651489 1.09135742 -5.36010742 0.64257812 C-3 0 -3 0 0 0 Z " fill="#D7B52F" transform="translate(447,212)"/>
<path d="M0 0 C-1.7015625 0.61875 -1.7015625 0.61875 -3.4375 1.25 C-7.05494324 2.52802099 -7.05494324 2.52802099 -7.7127676 4.83491898 C-8.00589578 7.04444078 -8.13918998 9.16225488 -8.15821838 11.39129639 C-8.1680072 12.26345291 -8.17779602 13.13560944 -8.18788147 14.03419495 C-8.19363693 14.98293991 -8.1993924 15.93168488 -8.20532227 16.90917969 C-8.21522186 17.91438156 -8.22512146 18.91958344 -8.23532104 19.95524597 C-8.26690572 23.2774317 -8.29168159 26.59963172 -8.31640625 29.921875 C-8.33697839 32.2254473 -8.35797493 34.52901585 -8.37937927 36.83258057 C-8.43457308 42.89553793 -8.48399429 48.9585292 -8.53222656 55.02154541 C-8.58246118 61.20840473 -8.63813703 67.3952148 -8.69335938 73.58203125 C-8.80090806 85.72131209 -8.9023604 97.8606357 -9 110 C-5.535 109.505 -5.535 109.505 -2 109 C-6.625 113.875 -6.625 113.875 -10 115 C-10 77.38 -10 39.76 -10 1 C-3.25 -1.25 -3.25 -1.25 0 0 Z " fill="#D4B32C" transform="translate(268,280)"/>
<path d="M0 0 C0.99 0 1.98 0 3 0 C3 37.62 3 75.24 3 114 C-1.03744506 111.98127747 -3.62010675 109.91899872 -7 107 C-5.02 106.505 -5.02 106.505 -3 106 C-2.34 106.99 -1.68 107.98 -1 109 C-0.01 109.33 0.98 109.66 2 110 C1.89284386 95.95303886 1.78003229 81.90613297 1.66066074 67.8592701 C1.60540318 61.3373499 1.55197866 54.81542525 1.50268555 48.29345703 C1.45508378 42.0040676 1.40274254 35.71473412 1.34705925 29.42541122 C1.32661668 27.02116151 1.30790681 24.61689644 1.29092598 22.21261978 C1.26692404 18.85539425 1.23686374 15.49827522 1.20532227 12.14111328 C1.1995668 11.13842407 1.19381134 10.13573486 1.18788147 9.10266113 C1.17809265 8.19118317 1.16830383 7.2797052 1.15821838 6.34060669 C1.15176583 5.54602114 1.14531328 4.75143559 1.1386652 3.93277168 C1.11776163 1.9171386 1.11776163 1.9171386 0 0 Z " fill="#2BA5C8" transform="translate(236,281)"/>
<path d="M0 0 C0.66 0 1.32 0 2 0 C3.2890625 1.75 3.2890625 1.75 4.625 4 C5.07101563 4.7425 5.51703125 5.485 5.9765625 6.25 C6.31429687 6.8275 6.65203125 7.405 7 8 C6.01 8 5.02 8 4 8 C4.66380098 13.39499506 5.33947498 18.78831609 6.02636719 24.18041992 C6.25851026 26.01626843 6.48736007 27.85253642 6.71289062 29.68920898 C7.03698758 32.32391825 7.37276528 34.95690894 7.7109375 37.58984375 C7.80998383 38.41588608 7.90903015 39.24192841 8.01107788 40.09300232 C8.27115657 42.07239112 8.62646123 44.03885499 9 46 C9.66 46.33 10.32 46.66 11 47 C11.33 46.01 11.66 45.02 12 44 C12.33 44 12.66 44 13 44 C13.12375 45.670625 13.12375 45.670625 13.25 47.375 C13.57873787 51.05753944 13.57873787 51.05753944 16.0625 52.4375 C17.0215625 52.7159375 17.0215625 52.7159375 18 53 C16.2578125 53.67578125 16.2578125 53.67578125 14 54 C10.29387778 52.17490962 8.11872042 49.49824283 6 46 C4.84970821 41.00992468 4.59296676 36.06280088 4.25683594 30.96386719 C3.73154361 24.90203367 2.76500399 18.8920355 1.875 12.875 C1.51806403 10.41408645 1.16128021 7.95315082 0.8046875 5.4921875 C0.53685577 3.66140015 0.26878707 1.83064734 0 0 Z " fill="#D5B730" transform="translate(97,344)"/>
<path d="M0 0 C0.33 0 0.66 0 1 0 C0.99476318 0.67466309 0.98952637 1.34932617 0.98413086 2.04443359 C0.96311254 5.1546126 0.95026176 8.26477658 0.9375 11.375 C0.92912109 12.43589844 0.92074219 13.49679688 0.91210938 14.58984375 C0.8920576 21.12672204 1.1941922 27.51174824 2 34 C2.928125 33.649375 3.85625 33.29875 4.8125 32.9375 C8 32 8 32 11 33 C9.79216249 36.62351253 8.70346858 37.15215236 5.5625 39.1875 C4.75941406 39.71730469 3.95632812 40.24710937 3.12890625 40.79296875 C1 42 1 42 -1 42 C-1.02493183 37.46509185 -1.04296857 32.93022461 -1.05493164 28.39526367 C-1.05992496 26.85619409 -1.06672194 25.31712916 -1.07543945 23.77807617 C-1.11950003 15.79274406 -1.14483112 7.92367363 0 0 Z " fill="#D5B428" transform="translate(42,217)"/>
<path d="M0 0 C-2.50687224 2.50687224 -4.24791073 2.67362635 -7.6875 3.4375 C-11.16731322 4.25774169 -14.44496415 5.04829694 -17.6875 6.5625 C-21.15489393 8.06721812 -24.38060061 8.803723 -28.08203125 9.47265625 C-30.22011378 9.89055153 -30.22011378 9.89055153 -32 12 C-36.80566706 13.69611779 -40.9183218 14.20741544 -46 14 C-46 14.66 -46 15.32 -46 16 C-50.49656104 18.24828052 -54.07872966 18.16682272 -59 18 C-56.14089828 16.09393219 -53.97692368 15.22622097 -50.73413086 14.1965332 C-49.65969223 13.85310379 -48.5852536 13.50967438 -47.47825623 13.15583801 C-46.31883011 12.79116928 -45.15940399 12.42650055 -43.96484375 12.05078125 C-42.77524551 11.67390671 -41.58564728 11.29703217 -40.36000061 10.90873718 C-37.84482576 10.11368819 -35.32909058 9.32075084 -32.81225586 8.53100586 C-29.58246326 7.51702609 -26.35631752 6.49194097 -23.13100338 5.46381855 C-20.05692791 4.4859991 -16.97945703 3.51899058 -13.90234375 2.55078125 C-12.7408934 2.18003983 -11.57944305 1.8092984 -10.38279724 1.42732239 C-9.31151077 1.09334946 -8.2402243 0.75937653 -7.13647461 0.4152832 C-6.19066025 0.11709183 -5.24484589 -0.18109955 -4.27037048 -0.48832703 C-2 -1 -2 -1 0 0 Z " fill="#D6B735" transform="translate(378,245)"/>
<path d="M0 0 C0.99 0 1.98 0 3 0 C3 28.05 3 56.1 3 85 C-3 88 -3 88 -5 88 C-5 87.34 -5 86.68 -5 86 C-4.01 86 -3.02 86 -2 86 C-2 85.34 -2 84.68 -2 84 C-0.68 84 0.64 84 2 84 C2 56.61 2 29.22 2 1 C1.34 0.67 0.68 0.34 0 0 Z " fill="#D6B42A" transform="translate(379,243)"/>
<path d="M0 0 C2.31 0 4.62 0 7 0 C3.96799637 2.02133576 1.55577881 2.88449999 -1.91015625 3.9453125 C-3.64168945 4.47705078 -3.64168945 4.47705078 -5.40820312 5.01953125 C-7.21708008 5.56673828 -7.21708008 5.56673828 -9.0625 6.125 C-10.27228516 6.49753906 -11.48207031 6.87007812 -12.72851562 7.25390625 C-21.72624771 10 -21.72624771 10 -24 10 C-24 8.35 -24 6.7 -24 5 C-21.06482551 3.34477603 -18.7250642 2.70079936 -15.375 2.4375 C-12.06333997 2.18115456 -12.06333997 2.18115456 -9 1 C-7.45386986 1.08651631 -5.91090613 1.24002636 -4.375 1.4375 C-3.14910156 1.59025391 -3.14910156 1.59025391 -1.8984375 1.74609375 C-0.95871094 1.87177734 -0.95871094 1.87177734 0 2 C0 1.34 0 0.68 0 0 Z " fill="#16679C" transform="translate(378,223)"/>
<path d="M0 0 C1.34275169 0.98731742 2.67732273 1.98594743 4 3 C3.34 3 2.68 3 2 3 C2 4.65 2 6.3 2 8 C1.4225 7.814375 0.845 7.62875 0.25 7.4375 C-1.95434942 6.82795334 -1.95434942 6.82795334 -3.875 7.5625 C-6.51150728 8.10531032 -7.78875576 7.58801843 -10.25 6.5625 C-10.95640625 6.27503906 -11.6628125 5.98757812 -12.390625 5.69140625 C-12.92171875 5.46324219 -13.4528125 5.23507813 -14 5 C-12.53698952 2.07397905 -10.58977236 1.90294791 -7.5625 0.8125 C-6.57378906 0.44769531 -5.58507812 0.08289063 -4.56640625 -0.29296875 C-2 -1 -2 -1 0 0 Z " fill="#176599" transform="translate(133,219)"/>
<path d="M0 0 C1.11826172 0.00322266 2.23652344 0.00644531 3.38867188 0.00976562 C4.55591797 0.01814453 5.72316406 0.02652344 6.92578125 0.03515625 C8.10462891 0.03966797 9.28347656 0.04417969 10.49804688 0.04882812 C13.41150914 0.06062352 16.32486988 0.07708355 19.23828125 0.09765625 C19.73328125 1.08765625 19.73328125 1.08765625 20.23828125 2.09765625 C19.11522583 2.12738525 19.11522583 2.12738525 17.96948242 2.15771484 C2.97403411 2.57339386 -11.87409014 3.2092009 -26.76171875 5.09765625 C-26.10171875 4.10765625 -25.44171875 3.11765625 -24.76171875 2.09765625 C-22.05358916 1.73814394 -19.54025192 1.53954185 -16.82421875 1.47265625 C-11.07166899 1.26920621 -5.71952323 -0.02903311 0 0 Z " fill="#D3B129" transform="translate(237.76171875,62.90234375)"/>
<path d="M0 0 C1 2 1 2 1 5 C1.99 4.34 2.98 3.68 4 3 C4 3.66 4 4.32 4 5 C5.65 5 7.3 5 9 5 C8.979375 5.94875 8.95875 6.8975 8.9375 7.875 C8.77448174 10.90666283 8.77448174 10.90666283 10 13 C9.34 13.66 8.68 14.32 8 15 C6.06096151 13.39766277 4.12373796 11.79321522 2.1875 10.1875 C1.64029297 9.73568359 1.09308594 9.28386719 0.52929688 8.81835938 C-2.09069392 6.64297307 -4.65681032 4.47473717 -7 2 C-6.21625 2.04125 -5.4325 2.0825 -4.625 2.125 C-1.83883881 2.28728734 -1.83883881 2.28728734 0 0 Z " fill="#DCB51C" transform="translate(357,97)"/>
<path d="M0 0 C0.144375 1.093125 0.28875 2.18625 0.4375 3.3125 C0.88288104 6.93122987 0.88288104 6.93122987 2 10 C0.06213915 9.52229477 -1.87527674 9.04278429 -3.8125 8.5625 C-4.89144531 8.29566406 -5.97039063 8.02882812 -7.08203125 7.75390625 C-9.0740843 7.23922588 -11.04811524 6.65062825 -13 6 C-13 5.34 -13 4.68 -13 4 C-11.39850114 3.32694982 -9.79368971 2.66177773 -8.1875 2 C-7.29417969 1.62875 -6.40085937 1.2575 -5.48046875 0.875 C-3 0 -3 0 0 0 Z " fill="#156499" transform="translate(15,181)"/>
<path d="M0 0 C0.33 0 0.66 0 1 0 C1.47195657 36.70369935 1.47195657 36.70369935 -2 53 C-2.33 53 -2.66 53 -3 53 C-3.02685412 50.68756208 -3.04632841 48.3750373 -3.0625 46.0625 C-3.07410156 44.77472656 -3.08570313 43.48695313 -3.09765625 42.16015625 C-3 39 -3 39 -2 38 C-0.6448888 29.90948423 -0.69437101 21.55276225 -0.4375 13.375 C-0.39431641 12.08464844 -0.35113281 10.79429687 -0.30664062 9.46484375 C-0.20147852 6.30998067 -0.09933396 3.15505105 0 0 Z " fill="#D4B537" transform="translate(448,228)"/>
<path d="M0 0 C-0.99 0.66 -1.98 1.32 -3 2 C-3.33 1.67 -3.66 1.34 -4 1 C-4.969375 1.04125 -5.93875 1.0825 -6.9375 1.125 C-7.948125 1.08375 -8.95875 1.0425 -10 1 C-10.66 0.01 -11.32 -0.98 -12 -2 C-12.33 -1.67 -12.66 -1.34 -13 -1 C-16.20049657 -0.82700019 -18.92954549 -1.0902357 -22 -2 C-22.33 -1.34 -22.66 -0.68 -23 0 C-24.65 0 -26.3 0 -28 0 C-28 -0.66 -28 -1.32 -28 -2 C-18.42697779 -8.68668385 -9.74282884 -3.94807443 0 0 Z " fill="#1C6492" transform="translate(254,101)"/>
<path d="M0 0 C4.81767553 0.58112039 9.19926443 1.55828468 13.80859375 3.06640625 C15.04931641 3.46923828 16.29003906 3.87207031 17.56835938 4.28710938 C18.85811421 4.7121143 20.14782725 5.13724606 21.4375 5.5625 C22.75438546 5.9920636 24.07144142 6.42110484 25.38867188 6.84960938 C28.59415995 7.89462197 31.79782127 8.94489911 35 10 C35 10.33 35 10.66 35 11 C33.00045254 11.04254356 30.99958364 11.04080783 29 11 C28.67 10.67 28.34 10.34 28 10 C26.65252916 9.76924918 25.29622435 9.58846937 23.9375 9.4375 C22.638125 9.293125 21.33875 9.14875 20 9 C20 8.34 20 7.68 20 7 C18.6696875 6.814375 18.6696875 6.814375 17.3125 6.625 C14.27185454 6.05129331 11.85461437 5.14184575 9 4 C7.0075675 3.62406934 5.0081326 3.28020455 3 3 C3 2.34 3 1.68 3 1 C2.01 0.67 1.02 0.34 0 0 Z " fill="#35B7DB" transform="translate(175,262)"/>
<path d="M0 0 C1.75280733 0.42611351 3.50217435 0.86639267 5.25 1.3125 C6.22453125 1.55613281 7.1990625 1.79976562 8.203125 2.05078125 C10.98975665 2.99652356 12.77304368 4.10708713 15 6 C8.7677635 8.46937673 2.48707154 10.3186083 -4 12 C-3.34 11.01 -2.68 10.02 -2 9 C-0.68 9 0.64 9 2 9 C2.33 8.34 2.66 7.68 3 7 C5.0625 5.875 5.0625 5.875 7 5 C7 4.34 7 3.68 7 3 C4.69 2.67 2.38 2.34 0 2 C0 1.34 0 0.68 0 0 Z " fill="#276A94" transform="translate(483,182)"/>
<path d="M0 0 C0.33 0 0.66 0 1 0 C1.6503186 8.4107872 1.04327923 15.00576802 -4 22 C-6.171875 23.77734375 -6.171875 23.77734375 -8 25 C-8 24.01 -8 23.02 -8 22 C-7.34 22 -6.68 22 -6 22 C-5.67 20.68 -5.34 19.36 -5 18 C-4.34 18 -3.68 18 -3 18 C-3.2784375 16.6078125 -3.2784375 16.6078125 -3.5625 15.1875 C-4.27373403 10.00565206 -1.64277811 4.92833434 0 0 Z " fill="#216A95" transform="translate(94,281)"/>
<path d="M0 0 C0.33 0.66 0.66 1.32 1 2 C-0.38542316 5.62848922 -1.84351662 8.76527494 -4 12 C-4.66 12 -5.32 12 -6 12 C-6.2165625 12.8971875 -6.2165625 12.8971875 -6.4375 13.8125 C-6.8872439 15.56150404 -7.42892341 17.28677023 -8 19 C-9.65204456 19.70211894 -11.31923769 20.36971413 -13 21 C-13.33 21.66 -13.66 22.32 -14 23 C-14.66 23 -15.32 23 -16 23 C-14.50725165 19.67178047 -12.5765246 17.1124453 -10.25 14.3125 C-6.51511342 9.72567762 -3.17867477 4.98473997 0 0 Z " fill="#DBBD3C" transform="translate(395,338)"/>
<path d="M0 0 C0 1.65 0 3.3 0 5 C1.65 5 3.3 5 5 5 C5 5.66 5 6.32 5 7 C5.763125 7.144375 6.52625 7.28875 7.3125 7.4375 C10 8 10 8 13 9 C13 9.66 13 10.32 13 11 C4.82602049 8.41874331 -3.06640834 5.22988119 -11 2 C-11 1.67 -11 1.34 -11 1 C-7.26562152 0.12132271 -3.83225427 -0.08912219 0 0 Z " fill="#27B4DA" transform="translate(135,330)"/>
<path d="M0 0 C8.13815304 2.30643508 16.05682118 5.10428784 24 8 C20.59598052 9.13732426 18.22543336 8.83989957 14.75 8.0625 C13.85796875 7.86785156 12.9659375 7.67320312 12.046875 7.47265625 C11.03367187 7.23869141 11.03367187 7.23869141 10 7 C10 6.34 10 5.68 10 5 C8.02 5.66 6.04 6.32 4 7 C4 6.34 4 5.68 4 5 C2.68 4.34 1.36 3.68 0 3 C0 2.01 0 1.02 0 0 Z " fill="#286E9C" transform="translate(398,152)"/>
<path d="M0 0 C5.61 0 11.22 0 17 0 C17 0.66 17 1.32 17 2 C20.3 2 23.6 2 27 2 C27 2.66 27 3.32 27 4 C28.65 4 30.3 4 32 4 C32.495 4.99 32.495 4.99 33 6 C27.62939417 5.37732106 22.3643858 4.54911583 17.0625 3.5 C11.38599496 2.40262164 5.76021903 1.51430527 0 1 C0 0.67 0 0.34 0 0 Z " fill="#D6B630" transform="translate(260,65)"/>
<path d="M0 0 C0.33 0.99 0.66 1.98 1 3 C0.40832031 3.32613281 -0.18335938 3.65226562 -0.79296875 3.98828125 C-1.97826172 4.64376953 -1.97826172 4.64376953 -3.1875 5.3125 C-4.00992188 5.76496094 -4.83234375 6.21742187 -5.6796875 6.68359375 C-7.43200746 7.67775508 -9.13617531 8.75745021 -10.8125 9.875 C-13.45646904 11.2347555 -14.25427947 10.84040922 -17 10 C-14.545324 8.32771465 -12.08660326 6.6620314 -9.625 5 C-8.92632812 4.52304688 -8.22765625 4.04609375 -7.5078125 3.5546875 C-6.8375 3.10351562 -6.1671875 2.65234375 -5.4765625 2.1875 C-4.85861816 1.76855469 -4.24067383 1.34960938 -3.60400391 0.91796875 C-2 0 -2 0 0 0 Z " fill="#D9B62B" transform="translate(141,68)"/>
<path d="M0 0 C-2.68084689 1.422966 -5.22117297 2.4402472 -8.15234375 3.21875 C-8.92900391 3.42886719 -9.70566406 3.63898438 -10.50585938 3.85546875 C-11.70952148 4.17451172 -11.70952148 4.17451172 -12.9375 4.5 C-19.00118069 6.07957323 -19.00118069 6.07957323 -24.87890625 8.21875 C-27 9 -27 9 -30 8 C-28.68 7.67 -27.36 7.34 -26 7 C-26.33 6.01 -26.66 5.02 -27 4 C-22.38 3.67 -17.76 3.34 -13 3 C-13 2.34 -13 1.68 -13 1 C-8.62426048 0.40667939 -4.42471556 -0.13827236 0 0 Z " fill="#D9BA42" transform="translate(209,68)"/>
<path d="M0 0 C9.09574126 2.37028851 18.04392769 5.15698081 27 8 C23.34811918 9.07174763 20.73567172 8.76411467 17 8 C16.67 8.66 16.34 9.32 16 10 C15.67 8.68 15.34 7.36 15 6 C13.35 6 11.7 6 10 6 C10 5.34 10 4.68 10 4 C6.7 3.34 3.4 2.68 0 2 C0 1.34 0 0.68 0 0 Z " fill="#3CB9D7" transform="translate(148,253)"/>
<path d="M0 0 C8.94129144 1.44006377 17.41105391 4.20805971 26 7 C26 7.33 26 7.66 26 8 C20.01187798 8.31516432 16.52821688 7.55935967 11 5 C9.01178687 4.60235737 7.01267638 4.24544834 5 4 C5 3.34 5 2.68 5 2 C3.35 2 1.7 2 0 2 C0 1.34 0 0.68 0 0 Z " fill="#2AB3DA" transform="translate(121,245)"/>
<path d="M0 0 C0.99 0 1.98 0 3 0 C3 0.66 3 1.32 3 2 C-0.11963179 3.36678479 -3.24646237 4.71623991 -6.375 6.0625 C-7.26445312 6.45244141 -8.15390625 6.84238281 -9.0703125 7.24414062 C-9.92109375 7.60830078 -10.771875 7.97246094 -11.6484375 8.34765625 C-12.43395996 8.68804932 -13.21948242 9.02844238 -14.02880859 9.37915039 C-16 10 -16 10 -18 9 C-16.8125 7.5 -16.8125 7.5 -15 6 C-12.3125 5.8125 -12.3125 5.8125 -10 6 C-9.67 5.01 -9.34 4.02 -9 3 C-4.545 2.505 -4.545 2.505 0 2 C0 1.34 0 0.68 0 0 Z " fill="#DABA30" transform="translate(332,425)"/>
<path d="M0 0 C5.45111321 2.58210626 10.17518523 5.38138892 15 9 C13.66666667 9.33333333 12.33333333 9.66666667 11 10 C9.88625 10.2784375 9.88625 10.2784375 8.75 10.5625 C7.88375 10.7790625 7.88375 10.7790625 7 11 C6.7525 10.030625 6.505 9.06125 6.25 8.0625 C5.63125 6.5465625 5.63125 6.5465625 5 5 C2.96756452 4.03122943 2.96756452 4.03122943 1 4 C0.67 2.68 0.34 1.36 0 0 Z " fill="#DDB425" transform="translate(348,67)"/>
<path d="M0 0 C0.70125 0.44730469 1.4025 0.89460938 2.125 1.35546875 C7.73407926 4.92973257 13.3539018 8.4845049 19 12 C18.34 12.66 17.68 13.32 17 14 C15.68 14 14.36 14 13 14 C12.67 13.01 12.34 12.02 12 11 C9.98491642 10.26676204 9.98491642 10.26676204 8 10 C8 9.01 8 8.02 8 7 C7.4225 6.731875 6.845 6.46375 6.25 6.1875 C3.94449957 4.97070811 1.97943808 3.69666121 0 2 C0 1.34 0 0.68 0 0 Z " fill="#D8B731" transform="translate(136,384)"/>
<path d="M0 0 C3.465 1.485 3.465 1.485 7 3 C3.31265242 5.45823172 0.30300029 6.01242616 -4 7 C-4.66 5.02 -5.32 3.04 -6 1 C-4.7934375 1.0309375 -4.7934375 1.0309375 -3.5625 1.0625 C-1.06645115 1.29633621 -1.06645115 1.29633621 0 0 Z " fill="#1B699D" transform="translate(314,240)"/>
<path d="M0 0 C0.33 0.99 0.66 1.98 1 3 C0.54109375 3.36351563 0.0821875 3.72703125 -0.390625 4.1015625 C-3.5001189 6.64925708 -5.87376132 8.81064198 -8.125 12.1875 C-10.14059525 15.21089288 -11.70277493 16.52492563 -15 18 C-15.66 17.67 -16.32 17.34 -17 17 C-11.39 11.39 -5.78 5.78 0 0 Z " fill="#D8BA3A" transform="translate(109,90)"/>
<path d="M0 0 C5.9129304 0.64270983 11.34244531 2.19003784 17 4 C17 4.66 17 5.32 17 6 C17.7425 5.95875 18.485 5.9175 19.25 5.875 C22.08758952 6.00398134 23.58773938 6.57051222 26 8 C26 8.66 26 9.32 26 10 C17.12157015 7.56696874 8.58594775 4.29163506 0 1 C0 0.67 0 0.34 0 0 Z " fill="#246994" transform="translate(49,201)"/>
<path d="M0 0 C0.66 0.99 1.32 1.98 2 3 C1.125 6.1875 1.125 6.1875 0 9 C1.32 8.67 2.64 8.34 4 8 C3.34 9.65 2.68 11.3 2 13 C1.34 12.67 0.68 12.34 0 12 C0 15.3 0 18.6 0 22 C-2.05726561 17.88546879 -2.27072416 16.0441001 -2.25 11.5625 C-2.25515625 10.45003906 -2.2603125 9.33757812 -2.265625 8.19140625 C-2.00441051 5.052991 -1.33378454 2.83164575 0 0 Z " fill="#1E6697" transform="translate(42,274)"/>
<path d="M0 0 C-1.06541016 0.41572266 -1.06541016 0.41572266 -2.15234375 0.83984375 C-3.53099609 1.38318359 -3.53099609 1.38318359 -4.9375 1.9375 C-5.85402344 2.29714844 -6.77054687 2.65679687 -7.71484375 3.02734375 C-9.92418533 3.7996218 -9.92418533 3.7996218 -11 5 C-13.33297433 5.04092937 -15.66705225 5.04241723 -18 5 C-18 5.66 -18 6.32 -18 7 C-19.65 6.67 -21.3 6.34 -23 6 C-19.52819555 3.6854637 -16.00204877 2.55044236 -12.0625 1.3125 C-11.34642578 1.07466797 -10.63035156 0.83683594 -9.89257812 0.59179688 C-6.16030285 -0.58772664 -3.73134196 -1.18041207 0 0 Z " fill="#DAB731" transform="translate(319,264)"/>
<path d="M0 0 C-1.43429001 0.67354499 -2.87257057 1.33859701 -4.3125 2 C-5.11300781 2.37125 -5.91351563 2.7425 -6.73828125 3.125 C-9 4 -9 4 -12 4 C-12 4.99 -12 5.98 -12 7 C-13.58086048 7.36504603 -15.16483907 7.71660506 -16.75 8.0625 C-17.63171875 8.25972656 -18.5134375 8.45695313 -19.421875 8.66015625 C-22.02266321 9.00298742 -23.51848845 8.70340244 -26 8 C-22.04634027 6.46681219 -18.08639947 4.95056575 -14.125 3.4375 C-12.99707031 2.99986328 -11.86914062 2.56222656 -10.70703125 2.11132812 C-9.63066406 1.70205078 -8.55429688 1.29277344 -7.4453125 0.87109375 C-6.45031738 0.48880615 -5.45532227 0.10651855 -4.43017578 -0.28735352 C-2 -1 -2 -1 0 0 Z " fill="#31729A" transform="translate(116,143)"/>
<path d="M0 0 C2.74792483 3.40219265 6 7.48464588 6 12 C0.94744036 11.36843005 -3.29593201 9.86540627 -8 8 C-4.34811918 6.92825237 -1.73567172 7.23588533 2 8 C1.67 7.4225 1.34 6.845 1 6.25 C0 4 0 4 0 0 Z " fill="#D4BB3C" transform="translate(421,140)"/>
<path d="M0 0 C0 0.66 0 1.32 0 2 C1.65 2.33 3.3 2.66 5 3 C1.99559979 5.00293347 0.29006055 5.49271626 -3.1875 6.125 C-4.08855469 6.29257812 -4.98960937 6.46015625 -5.91796875 6.6328125 C-6.60503906 6.75398438 -7.29210937 6.87515625 -8 7 C-8 5 -8 5 -7 4 C-7 3.34 -7 2.68 -7 2 C-4 0 -4 0 0 0 Z " fill="#DBB520" transform="translate(302,434)"/>
<path d="M0 0 C0.66 1.32 1.32 2.64 2 4 C0.54550599 5.0055761 -0.91372443 6.00430435 -2.375 7 C-3.59316406 7.8353125 -3.59316406 7.8353125 -4.8359375 8.6875 C-7 10 -7 10 -9 10 C-9 7.66666667 -9 5.33333333 -9 3 C-6.36 3.33 -3.72 3.66 -1 4 C-0.67 2.68 -0.34 1.36 0 0 Z " fill="#DBB423" transform="translate(363,405)"/>
<path d="M0 0 C0 0.66 0 1.32 0 2 C-2.51758117 2.98829417 -5.03854724 3.9657226 -7.5625 4.9375 C-8.26697266 5.21529297 -8.97144531 5.49308594 -9.69726562 5.77929688 C-14.16090498 7.4865875 -18.24380456 8.50625566 -23 9 C-20.52707713 7.35138475 -18.56420889 6.33511416 -15.83984375 5.2734375 C-15.04642578 4.9640625 -14.25300781 4.6546875 -13.43554688 4.3359375 C-12.61119141 4.01882812 -11.78683594 3.70171875 -10.9375 3.375 C-10.10927734 3.05015625 -9.28105469 2.7253125 -8.42773438 2.390625 C-2.25530134 0 -2.25530134 0 0 0 Z " fill="#31739A" transform="translate(194,112)"/>
<path d="M0 0 C-3.18900456 2.12600304 -5.90414569 3.02136239 -9.5625 4.125 C-11.29693359 4.65480469 -11.29693359 4.65480469 -13.06640625 5.1953125 C-16 6 -16 6 -18 6 C-18 5.34 -18 4.68 -18 4 C-12.59640163 0.95181631 -6.12972015 -2.04324005 0 0 Z " fill="#2A6E9A" transform="translate(343,236)"/>
<path d="M0 0 C1.65 0 3.3 0 5 0 C1.43780321 2.95936349 -2.45818496 4.81027576 -6.625 6.75 C-7.305625 7.07871094 -7.98625 7.40742187 -8.6875 7.74609375 C-10.42950494 8.56201306 -12.21281342 9.28847373 -14 10 C-14.66 9.67 -15.32 9.34 -16 9 C-15.34 8.01 -14.68 7.02 -14 6 C-11.375 5.8125 -11.375 5.8125 -9 6 C-9 5.34 -9 4.68 -9 4 C-5.62902617 2.50178941 -3.79557881 2 0 2 C0 1.34 0 0.68 0 0 Z " fill="#D9B937" transform="translate(174,77)"/>
<path d="M0 0 C3.9492568 0.55105909 7.34920174 1.38935371 11 3 C7.92677456 3.91058531 5.19902639 4.08886184 2 4 C1.67 5.65 1.34 7.3 1 9 C0.34 9 -0.32 9 -1 9 C-1.125 2.25 -1.125 2.25 0 0 Z " fill="#D5B435" transform="translate(44,208)"/>
<path d="M0 0 C1 2 1 2 0.34375 3.98046875 C-1.32608817 6.49008019 -2.74079472 7.1523796 -5.5 8.3125 C-6.69109375 8.83263672 -6.69109375 8.83263672 -7.90625 9.36328125 C-10 10 -10 10 -12 9 C-8.04 6.03 -4.08 3.06 0 0 Z " fill="#DBB938" transform="translate(357,381)"/>
<path d="M0 0 C0.66 0 1.32 0 2 0 C1.36532318 3.43195616 0.02411502 5.75691741 -1.9375 8.625 C-2.46214844 9.40101563 -2.98679687 10.17703125 -3.52734375 10.9765625 C-5 13 -5 13 -7 15 C-6.67 12.03 -6.34 9.06 -6 6 C-5.34 6 -4.68 6 -4 6 C-3.67 5.01 -3.34 4.02 -3 3 C-2.01 3 -1.02 3 0 3 C0 2.01 0 1.02 0 0 Z " fill="#3877A0" transform="translate(96,223)"/>
<path d="M0 0 C0 1.65 0 3.3 0 5 C-0.66 4.34 -1.32 3.68 -2 3 C-7.6101294 3.23872891 -12.43969842 5.14283484 -17.64453125 7.16015625 C-20 8 -20 8 -22 8 C-22 7.34 -22 6.68 -22 6 C-18.8980736 4.9929564 -15.79311902 3.99559195 -12.6875 3 C-11.80642578 2.71382812 -10.92535156 2.42765625 -10.01757812 2.1328125 C-8.74624023 1.72675781 -8.74624023 1.72675781 -7.44921875 1.3125 C-6.27879028 0.93544922 -6.27879028 0.93544922 -5.0847168 0.55078125 C-3 0 -3 0 0 0 Z " fill="#D2B443" transform="translate(447,212)"/>
<path d="M0 0 C0 0.66 0 1.32 0 2 C0.99 2.66 1.98 3.32 3 4 C0.36 5.98 -2.28 7.96 -5 10 C-5.3669579 3.51707705 -5.3669579 3.51707705 -3.625 1.0625 C-2 0 -2 0 0 0 Z " fill="#DCB92D" transform="translate(377,393)"/>
<path d="M0 0 C3.3 0.99 6.6 1.98 10 3 C8.515 5.475 8.515 5.475 7 8 C4.13792848 6.71700242 1.9754912 5.469364 0 3 C0 2.01 0 1.02 0 0 Z " fill="#19659A" transform="translate(259,103)"/>
<path d="M0 0 C2.64 0 5.28 0 8 0 C8 0.66 8 1.32 8 2 C8.69867188 2.10957031 9.39734375 2.21914062 10.1171875 2.33203125 C11.48230469 2.56986328 11.48230469 2.56986328 12.875 2.8125 C14.23238281 3.03873047 14.23238281 3.03873047 15.6171875 3.26953125 C18 4 18 4 20 7 C15.57916835 6.2531799 11.41843259 4.88289994 7.1875 3.4375 C6.49462891 3.20353516 5.80175781 2.96957031 5.08789062 2.72851562 C3.39099886 2.15508324 1.69536922 1.57791831 0 1 C0 0.67 0 0.34 0 0 Z " fill="#DBBE33" transform="translate(293,71)"/>
<path d="M0 0 C0.66 0.33 1.32 0.66 2 1 C1.46105575 5.59808129 0.23428472 8.86784369 -2.0625 12.875 C-2.61035156 13.84179688 -3.15820312 14.80859375 -3.72265625 15.8046875 C-4.14417969 16.52914063 -4.56570313 17.25359375 -5 18 C-5.33 18 -5.66 18 -6 18 C-6 16.35 -6 14.7 -6 13 C-5.34 13 -4.68 13 -4 13 C-3.34 10.69 -2.68 8.38 -2 6 C-1.34 6 -0.68 6 0 6 C0 4.02 0 2.04 0 0 Z " fill="#DAB93A" transform="translate(429,324)"/>
<path d="M0 0 C0.33 0.99 0.66 1.98 1 3 C2.65 3 4.3 3 6 3 C3.39457984 4.73694677 1.41657225 5.69100448 -1.5 6.6875 C-2.2734375 6.95949219 -3.046875 7.23148438 -3.84375 7.51171875 C-6 8 -6 8 -9 7 C-6.69 6.01 -4.38 5.02 -2 4 C-2.33 3.01 -2.66 2.02 -3 1 C-2.01 0.67 -1.02 0.34 0 0 Z " fill="#2B719C" transform="translate(465,193)"/>
<path d="M0 0 C-0.33 0.99 -0.66 1.98 -1 3 C-1.66 2.67 -2.32 2.34 -3 2 C-2.34 3.65 -1.68 5.3 -1 7 C-5.455 6.01 -5.455 6.01 -10 5 C-10 4.34 -10 3.68 -10 3 C-8.70990357 2.49596232 -7.41786211 1.99690074 -6.125 1.5 C-5.04605469 1.08234375 -5.04605469 1.08234375 -3.9453125 0.65625 C-2 0 -2 0 0 0 Z " fill="#297196" transform="translate(12,182)"/>
<path d="M0 0 C-4.40955968 1.69598449 -8.47638557 2.37075861 -13.14453125 2.75390625 C-15.01307206 2.81040615 -15.01307206 2.81040615 -16 4 C-17.66617115 4.04063832 -19.33388095 4.042721 -21 4 C-21 3.34 -21 2.68 -21 2 C-18.25162151 1.46892686 -15.50187625 0.94984119 -12.75 0.4375 C-11.97269531 0.28603516 -11.19539062 0.13457031 -10.39453125 -0.02148438 C-9.64042969 -0.16005859 -8.88632813 -0.29863281 -8.109375 -0.44140625 C-7.07248535 -0.63778687 -7.07248535 -0.63778687 -6.01464844 -0.83813477 C-3.78712058 -1.01710362 -2.12493038 -0.65206197 0 0 Z " fill="#D9B739" transform="translate(223,41)"/>
<path d="M0 0 C0.66 0.33 1.32 0.66 2 1 C1.01 4.63 0.02 8.26 -1 12 C-2.32 10.68 -3.64 9.36 -5 8 C-4.34 6.68 -3.68 5.36 -3 4 C-2.34 4 -1.68 4 -1 4 C-0.67 2.68 -0.34 1.36 0 0 Z " fill="#1A6899" transform="translate(87,237)"/>
<path d="M0 0 C0.99 0.33 1.98 0.66 3 1 C3.33 2.32 3.66 3.64 4 5 C0.04 5.99 -3.92 6.98 -8 8 C-7.67 7.34 -7.34 6.68 -7 6 C-6.01 6 -5.02 6 -4 6 C-4 5.34 -4 4.68 -4 4 C-3.34 4 -2.68 4 -2 4 C-1.34 2.68 -0.68 1.36 0 0 Z " fill="#216C9F" transform="translate(439,201)"/>
<path d="M0 0 C2.64 0.33 5.28 0.66 8 1 C8 1.66 8 2.32 8 3 C12.455 3.99 12.455 3.99 17 5 C17 5.99 17 6.98 17 8 C11.08030998 6.24009216 5.58365008 3.60305395 0 1 C0 0.67 0 0.34 0 0 Z " fill="#2BB6D7" transform="translate(164,348)"/>
<path d="M0 0 C2.05078125 0.03255208 4.1015625 0.06510417 6.15234375 0.09765625 C2.78021994 2.34573879 -0.13515235 3.14926068 -4.03515625 4.22265625 C-5.01645508 4.49529297 -5.01645508 4.49529297 -6.01757812 4.7734375 C-7.62627968 5.21964669 -9.23679756 5.6592984 -10.84765625 6.09765625 C-10.84765625 5.43765625 -10.84765625 4.77765625 -10.84765625 4.09765625 C-10.18765625 4.09765625 -9.52765625 4.09765625 -8.84765625 4.09765625 C-8.51765625 3.10765625 -8.18765625 2.11765625 -7.84765625 1.09765625 C-6.64109375 1.12859375 -6.64109375 1.12859375 -5.41015625 1.16015625 C-2.58661606 1.09128942 -2.56529606 0.13558647 0 0 Z " fill="#2E749C" transform="translate(423.84765625,208.90234375)"/>
<path d="M0 0 C2.31 0 4.62 0 7 0 C4.20083611 1.86610926 2.18061731 2.68785383 -1 3.625 C-2.299375 4.01558594 -2.299375 4.01558594 -3.625 4.4140625 C-6 5 -6 5 -9 5 C-9.33 3.68 -9.66 2.36 -10 1 C-6.7 1.33 -3.4 1.66 0 2 C0 1.34 0 0.68 0 0 Z " fill="#2E729F" transform="translate(378,223)"/>
<path d="M0 0 C4.83628305 0.99043705 9.47618873 1.95698846 14 4 C14 4.33 14 4.66 14 5 C11.69 5 9.38 5 7 5 C7 4.34 7 3.68 7 3 C5.35 3 3.7 3 2 3 C1.67 3.99 1.34 4.98 1 6 C0 1.125 0 1.125 0 0 Z " fill="#DAB42F" transform="translate(304,48)"/>
<path d="M0 0 C-6.93 3.465 -6.93 3.465 -14 7 C-14 5.35 -14 3.7 -14 2 C-11.525 2.495 -11.525 2.495 -9 3 C-9 2.34 -9 1.68 -9 1 C-5.19495213 -0.79682816 -4.29399165 -1.07349791 0 0 Z " fill="#D7B72F" transform="translate(326,352)"/>
<path d="M0 0 C1.6852084 4.07679159 0.16939007 6.83075593 -1.4375 10.75 C-1.91058594 11.92046875 -2.38367188 13.0909375 -2.87109375 14.296875 C-3.24363281 15.18890625 -3.61617188 16.0809375 -4 17 C-4.66 17 -5.32 17 -6 17 C-4.33846988 11.14340094 -2.52958084 5.5409866 0 0 Z " fill="#2C7499" transform="translate(71,228)"/>
<path d="M0 0 C0.66 0 1.32 0 2 0 C2 0.66 2 1.32 2 2 C1.34 2 0.68 2 0 2 C0 1.34 0 0.68 0 0 Z M-3 1 C-2.01 1.33 -1.02 1.66 0 2 C0 2.66 0 3.32 0 4 C0.99 4 1.98 4 3 4 C3 4.66 3 5.32 3 6 C4.32 6 5.64 6 7 6 C7 6.66 7 7.32 7 8 C3.1936543 7.32829194 -0.35206816 6.27253436 -4 5 C-3.67 3.68 -3.34 2.36 -3 1 Z " fill="#186496" transform="translate(42,193)"/>
<path d="M0 0 C1.75280733 0.42611351 3.50217435 0.86639267 5.25 1.3125 C6.22453125 1.55613281 7.1990625 1.79976562 8.203125 2.05078125 C10.98975665 2.99652356 12.77304368 4.10708713 15 6 C11.37673261 7.2077558 10.35853631 6.54311128 7 5 C7 4.34 7 3.68 7 3 C4.69 2.67 2.38 2.34 0 2 C0 1.34 0 0.68 0 0 Z " fill="#357097" transform="translate(483,182)"/>
<path d="M0 0 C0 0.66 0 1.32 0 2 C-0.95712891 2.41572266 -0.95712891 2.41572266 -1.93359375 2.83984375 C-2.75988281 3.20207031 -3.58617188 3.56429687 -4.4375 3.9375 C-5.26121094 4.29714844 -6.08492187 4.65679687 -6.93359375 5.02734375 C-8.94410117 5.83122323 -8.94410117 5.83122323 -10 7 C-12.33297433 7.04092937 -14.66705225 7.04241723 -17 7 C-14.42033404 4.42033404 -11.90692108 3.66390156 -8.5 2.375 C-7.3346875 1.92898437 -6.169375 1.48296875 -4.96875 1.0234375 C-2 0 -2 0 0 0 Z " fill="#2A6D95" transform="translate(79,156)"/>
<path d="M0 0 C0.33 0.99 0.66 1.98 1 3 C-1 5 -1 5 -2.875 5.375 C-5.19120832 5.87197356 -5.19120832 5.87197356 -7 8 C-9.0819403 10.0819403 -10.14458129 10.59208304 -13 11 C-9.0299782 6.78185183 -4.69159716 3.38772897 0 0 Z " fill="#D9BE49" transform="translate(123,79)"/>
<path d="M0 0 C0.33 0.66 0.66 1.32 1 2 C0.54625 2.4125 0.0925 2.825 -0.375 3.25 C-2.05950374 5.06408095 -2.99265971 6.75285627 -4 9 C-5.65 8.67 -7.3 8.34 -9 8 C-3.85714286 1.42857143 -3.85714286 1.42857143 0 0 Z " fill="#196495" transform="translate(55,261)"/>
<path d="M0 0 C2.31 0 4.62 0 7 0 C6.01 3.3 5.02 6.6 4 10 C3.67 10 3.34 10 3 10 C2.67 7.36 2.34 4.72 2 2 C1.34 2 0.68 2 0 2 C0 1.34 0 0.68 0 0 Z " fill="#D8B224" transform="translate(50,240)"/>
<path d="M0 0 C5.86809507 0.52393706 10.54873741 1.76108858 16 4 C14.02 4.99 14.02 4.99 12 6 C12 5.34 12 4.68 12 4 C8.7 3.67 5.4 3.34 2 3 C2 2.34 2 1.68 2 1 C1.34 0.67 0.68 0.34 0 0 Z " fill="#296D97" transform="translate(375,145)"/>
<path d="M0 0 C10.93025271 0.21056529 10.93025271 0.21056529 14.1875 3.5625 C15.0846875 4.7690625 15.0846875 4.7690625 16 6 C10.63904723 4.41078475 5.29156027 2.81027062 0 1 C0 0.67 0 0.34 0 0 Z " fill="#D3B83A" transform="translate(390,139)"/>
<path d="M0 0 C2.97 0.33 5.94 0.66 9 1 C9.66 2.65 10.32 4.3 11 6 C6.49197399 4.74194623 3.5087188 3.09592835 0 0 Z " fill="#DCB930" transform="translate(142,419)"/>
<path d="M0 0 C0 0.66 0 1.32 0 2 C-0.56847656 2.06058594 -1.13695312 2.12117188 -1.72265625 2.18359375 C-6.49781037 2.70176573 -11.2492305 3.29243859 -16 4 C-13.41588269 2.27725513 -11.45097344 1.31104478 -8.5625 0.3125 C-7.41974609 -0.09548828 -7.41974609 -0.09548828 -6.25390625 -0.51171875 C-3.78170279 -1.04729142 -2.37016716 -0.80445309 0 0 Z " fill="#D9B432" transform="translate(284,275)"/>
<path d="M0 0 C1.60597325 0.45196245 3.20972508 0.91182327 4.8125 1.375 C6.15248047 1.75785156 6.15248047 1.75785156 7.51953125 2.1484375 C10 3 10 3 13 5 C11.02 5.66 9.04 6.32 7 7 C6.67 6.34 6.34 5.68 6 5 C5.34 5 4.68 5 4 5 C4 4.34 4 3.68 4 3 C2.68 2.67 1.36 2.34 0 2 C0 1.34 0 0.68 0 0 Z " fill="#1D6D9A" transform="translate(281,111)"/>
<path d="M0 0 C2.95064148 -0.2208564 5.68368231 -0.28060989 8.625 -0.1875 C9.42679688 -0.17396484 10.22859375 -0.16042969 11.0546875 -0.14648438 C13.03674378 -0.11109051 15.01845551 -0.05728234 17 0 C17 0.33 17 0.66 17 1 C7.595 1.99 7.595 1.99 -2 3 C-1.34 2.01 -0.68 1.02 0 0 Z " fill="#D7B932" transform="translate(213,65)"/>
<path d="M0 0 C2.31 0 4.62 0 7 0 C7.33 0.66 7.66 1.32 8 2 C9.64363134 2.72159424 11.31050386 3.39351421 13 4 C13 4.66 13 5.32 13 6 C3.40546697 3.10933941 3.40546697 3.10933941 0 0 Z " fill="#D5B837" transform="translate(153,425)"/>
<path d="M0 0 C1.32 0 2.64 0 4 0 C4.66 0.99 5.32 1.98 6 3 C6.99 3.33 7.98 3.66 9 4 C9.33 3.01 9.66 2.02 10 1 C10 3.31 10 5.62 10 8 C6.05205855 6.32971708 3.18203882 3.8204435 0 1 C0 0.67 0 0.34 0 0 Z " fill="#3FB8D4" transform="translate(229,387)"/>
<path d="M0 0 C1.32 0.33 2.64 0.66 4 1 C-2.93 4.465 -2.93 4.465 -10 8 C-10 7.34 -10 6.68 -10 6 C-9.34 6 -8.68 6 -8 6 C-8 5.01 -8 4.02 -8 3 C-6.865625 2.690625 -5.73125 2.38125 -4.5625 2.0625 C-1.21224901 1.37075469 -1.21224901 1.37075469 0 0 Z " fill="#D7BB32" transform="translate(307,359)"/>
<path d="M0 0 C0.66 0 1.32 0 2 0 C3.2890625 1.75 3.2890625 1.75 4.625 4 C5.07101563 4.7425 5.51703125 5.485 5.9765625 6.25 C6.31429687 6.8275 6.65203125 7.405 7 8 C5.68 7.67 4.36 7.34 3 7 C3 8.65 3 10.3 3 12 C2.67 12 2.34 12 2 12 C1.34 8.04 0.68 4.08 0 0 Z " fill="#D7BC4C" transform="translate(97,344)"/>
<path d="M0 0 C0 0.66 0 1.32 0 2 C0.66 2.66 1.32 3.32 2 4 C-3.75 7 -3.75 7 -6 7 C-5.625 4.0625 -5.625 4.0625 -5 1 C-3 0 -3 0 0 0 Z " fill="#15679F" transform="translate(186,199)"/>
<path d="M0 0 C2.97 0.495 2.97 0.495 6 1 C6 1.66 6 2.32 6 3 C0.555 4.485 0.555 4.485 -5 6 C-5 5.34 -5 4.68 -5 4 C-4.360625 3.71125 -3.72125 3.4225 -3.0625 3.125 C-0.84793921 2.17176549 -0.84793921 2.17176549 0 0 Z " fill="#2B6D9B" transform="translate(136,203)"/>
<path d="M0 0 C0.66 1.32 1.32 2.64 2 4 C0.92685547 4.19916016 0.92685547 4.19916016 -0.16796875 4.40234375 C-2.94188322 4.98773535 -5.60299275 5.73158444 -8.3125 6.5625 C-9.19550781 6.83191406 -10.07851562 7.10132813 -10.98828125 7.37890625 C-11.98408203 7.68634766 -11.98408203 7.68634766 -13 8 C-13 7.34 -13 6.68 -13 6 C-11.39850114 5.32694982 -9.79368971 4.66177773 -8.1875 4 C-6.84751953 3.443125 -6.84751953 3.443125 -5.48046875 2.875 C-3 2 -3 2 0 2 C0 1.34 0 0.68 0 0 Z " fill="#286C99" transform="translate(259,160)"/>
<path d="M0 0 C2.475 0.495 2.475 0.495 5 1 C5 1.66 5 2.32 5 3 C5.66 3 6.32 3 7 3 C7 4.32 7 5.64 7 7 C7.66 7.33 8.32 7.66 9 8 C8.01 8 7.02 8 6 8 C4.39453125 6.25 4.39453125 6.25 2.8125 4 C2.28269531 3.2575 1.75289063 2.515 1.20703125 1.75 C0.80871094 1.1725 0.41039062 0.595 0 0 Z " fill="#DBB933" transform="translate(375,121)"/>
<path d="M0 0 C3.3 0.33 6.6 0.66 10 1 C9.67 1.66 9.34 2.32 9 3 C5.04 3 1.08 3 -3 3 C-2.01 2.67 -1.02 2.34 0 2 C0 1.34 0 0.68 0 0 Z " fill="#19618D" transform="translate(45,410)"/>
<path d="M0 0 C7.45937249 0.61142397 7.45937249 0.61142397 10 2.4375 C11 4 11 4 11 6 C6.49197399 4.74194623 3.5087188 3.09592835 0 0 Z " fill="#39BAE0" transform="translate(181,356)"/>
<path d="M0 0 C0.33 0 0.66 0 1 0 C0.56179109 4.55737263 0.14958831 7.57653445 -3 11 C-3.99 10.67 -4.98 10.34 -6 10 C-5.02526874 8.33073546 -4.04510211 6.66464358 -3.0625 5 C-2.24458984 3.6078125 -2.24458984 3.6078125 -1.41015625 2.1875 C-0.71212891 1.1046875 -0.71212891 1.1046875 0 0 Z " fill="#D7BA31" transform="translate(402,326)"/>
<path d="M0 0 C0.33 0 0.66 0 1 0 C1 1.98 1 3.96 1 6 C0.67 6 0.34 6 0 6 C0 4.02 0 2.04 0 0 Z M-2 6 C-1.34 6 -0.68 6 0 6 C-0.28241641 7.46015291 -0.57626614 8.91809793 -0.875 10.375 C-1.03742188 11.18710937 -1.19984375 11.99921875 -1.3671875 12.8359375 C-2 15 -2 15 -4 17 C-3.85957123 15.35369672 -3.71250671 13.70795821 -3.5625 12.0625 C-3.48128906 11.14597656 -3.40007812 10.22945313 -3.31640625 9.28515625 C-3 7 -3 7 -2 6 Z " fill="#DDB328" transform="translate(423,266)"/>
<path d="M0 0 C-9.22551253 5.74031891 -9.22551253 5.74031891 -15 5 C-12.30932731 3.20621821 -9.91421743 2.02686042 -6.9375 0.8125 C-5.62072266 0.26529297 -5.62072266 0.26529297 -4.27734375 -0.29296875 C-2 -1 -2 -1 0 0 Z " fill="#2D6D9C" transform="translate(30,176)"/>
<path d="M0 0 C-5.37899794 3.54784971 -9.58076669 4.70887831 -16 5 C-13.13879225 3.09252817 -10.64745007 1.99646294 -7.4375 0.8125 C-6.46683594 0.44769531 -5.49617188 0.08289063 -4.49609375 -0.29296875 C-2 -1 -2 -1 0 0 Z " fill="#316E94" transform="translate(268,170)"/>
<path d="M0 0 C6.52307692 -0.36923077 6.52307692 -0.36923077 8.9375 1.5 C9.288125 1.995 9.63875 2.49 10 3 C5.82412255 4.39195915 3.86525224 2.82323219 0 1 C0 0.67 0 0.34 0 0 Z " fill="#2B6F96" transform="translate(182,243)"/>
<path d="M0 0 C4.3177458 0.50797009 8.03302114 1.19682779 12 3 C11.01 3.66 10.02 4.32 9 5 C8.67 4.67 8.34 4.34 8 4 C6.00041636 3.95919217 3.99954746 3.95745644 2 4 C1.34 2.68 0.68 1.36 0 0 Z " fill="#276E94" transform="translate(242,98)"/>
<path d="M0 0 C1.35439668 2.70879335 1.06501451 5.00933268 1 8 C-5.875 4.25 -5.875 4.25 -7 2 C-6.21625 2.04125 -5.4325 2.0825 -4.625 2.125 C-1.83883881 2.28728734 -1.83883881 2.28728734 0 0 Z " fill="#D8BB30" transform="translate(357,97)"/>
<path d="M0 0 C4.455 0.99 4.455 0.99 9 2 C6 4 6 4 3 5 C2.01 4.34 1.02 3.68 0 3 C0 2.01 0 1.02 0 0 Z " fill="#1F6A9E" transform="translate(354,137)"/>
<path d="M0 0 C1.32 0 2.64 0 4 0 C4 0.66 4 1.32 4 2 C5.32 2 6.64 2 8 2 C10.25 4 10.25 4 12 6 C11.67 6.66 11.34 7.32 11 8 C9.16399255 6.85845641 7.33125195 5.71165684 5.5 4.5625 C4.4790625 3.92441406 3.458125 3.28632812 2.40625 2.62890625 C1.6121875 2.09136719 0.818125 1.55382812 0 1 C0 0.67 0 0.34 0 0 Z " fill="#D9C045" transform="translate(338,91)"/>
<path d="M0 0 C-4.625 4.875 -4.625 4.875 -8 6 C-7.625 3.5625 -7.625 3.5625 -7 1 C-4.53721199 -0.231394 -2.7204945 -0.07159196 0 0 Z " fill="#D9C03D" transform="translate(266,389)"/>
<path d="M0 0 C1.67542976 0.28604898 3.34385343 0.61781233 5 1 C3.37660195 2.70884005 1.70680947 4.37446717 0 6 C-0.66 6 -1.32 6 -2 6 C-1.125 1.125 -1.125 1.125 0 0 Z " fill="#DCB831" transform="translate(279,374)"/>
<path d="M0 0 C3.28788824 3.11016455 5.83735988 6.01618925 8 10 C6.68 9.67 5.36 9.34 4 9 C4 8.01 4 7.02 4 6 C3.34 6 2.68 6 2 6 C2 5.34 2 4.68 2 4 C1.34 4 0.68 4 0 4 C0 2.68 0 1.36 0 0 Z " fill="#D5BB3A" transform="translate(104,352)"/>
<path d="M0 0 C3.3 0.99 6.6 1.98 10 3 C10 3.33 10 3.66 10 4 C8.54207116 4.05399736 7.08357288 4.09279177 5.625 4.125 C4.81289063 4.14820313 4.00078125 4.17140625 3.1640625 4.1953125 C1 4 1 4 -1 2 C-0.67 1.34 -0.34 0.68 0 0 Z " fill="#226C9D" transform="translate(441,167)"/>
<path d="M0 0 C1.04449911 3.13349732 0.93423645 3.98968256 0 7 C-0.66 7 -1.32 7 -2 7 C-2.33 8.32 -2.66 9.64 -3 11 C-3.66 11 -4.32 11 -5 11 C-3.77472971 6.94718288 -2.30119506 3.55639236 0 0 Z " fill="#D7B63B" transform="translate(71,135)"/>
<path d="M0 0 C0.33 0 0.66 0 1 0 C1.10884119 1.41493551 1.18597617 2.83232943 1.25 4.25 C1.29640625 5.03890625 1.3428125 5.8278125 1.390625 6.640625 C1 9 1 9 -3 13 C-2.01 8.71 -1.02 4.42 0 0 Z " fill="#DCB93F" transform="translate(418,283)"/>
<path d="M0 0 C1.43836751 0.11458693 2.87570966 0.24209116 4.3125 0.375 C5.51326172 0.47941406 5.51326172 0.47941406 6.73828125 0.5859375 C9 1 9 1 12 3 C8.7 2.67 5.4 2.34 2 2 C1.67 2.66 1.34 3.32 1 4 C0.67 2.68 0.34 1.36 0 0 Z " fill="#27B4D6" transform="translate(163,259)"/>
<path d="M0 0 C-0.99 1.485 -0.99 1.485 -2 3 C-4.1640625 3.29296875 -4.1640625 3.29296875 -6.625 3.1875 C-7.44226563 3.16042969 -8.25953125 3.13335937 -9.1015625 3.10546875 C-10.04128906 3.05326172 -10.04128906 3.05326172 -11 3 C-3.71428571 -1.85714286 -3.71428571 -1.85714286 0 0 Z " fill="#D6B82E" transform="translate(182,50)"/>
<path d="M0 0 C0.66 0.33 1.32 0.66 2 1 C-0.475 4.465 -0.475 4.465 -3 8 C-4.03348696 4.89953913 -4.17755913 3.94389782 -3 1 C-2.01 0.67 -1.02 0.34 0 0 Z " fill="#DCBB3F" transform="translate(407,364)"/>
<path d="M0 0 C4.95 0.99 4.95 0.99 10 2 C8 4 8 4 4.375 4.125 C3.26125 4.08375 2.1475 4.0425 1 4 C0.67 2.68 0.34 1.36 0 0 Z " fill="#D9B71B" transform="translate(363,329)"/>
<path d="M0 0 C7.42857143 -0.28571429 7.42857143 -0.28571429 11 2 C11 2.66 11 3.32 11 4 C7.37 3.01 3.74 2.02 0 1 C0 0.67 0 0.34 0 0 Z " fill="#377699" transform="translate(208,252)"/>
<path d="M0 0 C0 0.99 0 1.98 0 3 C-2.5 4.6875 -2.5 4.6875 -5 6 C-5 5.34 -5 4.68 -5 4 C-5.99 3.67 -6.98 3.34 -8 3 C-5.36 2.01 -2.72 1.02 0 0 Z " fill="#256B9A" transform="translate(88,152)"/>
<path d="M0 0 C-0.33 0.66 -0.66 1.32 -1 2 C-3.28515625 2.4140625 -3.28515625 2.4140625 -6.0625 2.625 C-6.98160156 2.69976562 -7.90070313 2.77453125 -8.84765625 2.8515625 C-9.55792969 2.90054688 -10.26820313 2.94953125 -11 3 C-4.33333333 -1.44444444 -4.33333333 -1.44444444 0 0 Z " fill="#2A689A" transform="translate(197,196)"/>
<path d="M0 0 C-2.33214148 1.20628008 -4.49642139 2.1654738 -7 3 C-7.99 2.34 -8.98 1.68 -10 1 C-6.42181037 -1.33958553 -4.07775191 -0.9267618 0 0 Z " fill="#2871A4" transform="translate(457,172)"/>
<path d="M0 0 C3 2 3 2 4 5 C-2.625 4.25 -2.625 4.25 -6 2 C-4.02 2 -2.04 2 0 2 C0 1.34 0 0.68 0 0 Z " fill="#3676A1" transform="translate(268,162)"/>
<path d="M0 0 C-0.57344937 2.86724686 -0.8614515 3.8614515 -3 6 C-3.33 5.34 -3.66 4.68 -4 4 C-4.99 3.34 -5.98 2.68 -7 2 C-2.25 0 -2.25 0 0 0 Z " fill="#1C6998" transform="translate(168,122)"/>
<path d="M0 0 C2.97 0.495 2.97 0.495 6 1 C4.3545622 2.68762851 2.68711423 4.3540349 1 6 C0.67 6 0.34 6 0 6 C0 4.02 0 2.04 0 0 Z " fill="#DDB933" transform="translate(134,98)"/>
<path d="M0 0 C3.96 1.98 3.96 1.98 8 4 C8 4.99 8 5.98 8 7 C7.67 6.34 7.34 5.68 7 5 C3.97065509 4.34227572 3.97065509 4.34227572 1 4 C0.67 2.68 0.34 1.36 0 0 Z " fill="#DBBC43" transform="translate(348,67)"/>
<path d="M0 0 C0 3 0 3 -1 5 C-2.98 5 -4.96 5 -7 5 C-4.87219421 2.65941363 -2.88437779 1.29299694 0 0 Z " fill="#D8B435" transform="translate(148,63)"/>
<path d="M0 0 C1.65 0 3.3 0 5 0 C2.63707344 2.52588702 1.33537489 3.88820837 -2 5 C-2 4.01 -2 3.02 -2 2 C-1.34 2 -0.68 2 0 2 C0 1.34 0 0.68 0 0 Z " fill="#427C9E" transform="translate(83,400)"/>
<path d="M0 0 C1.32 0.33 2.64 0.66 4 1 C1.69 2.65 -0.62 4.3 -3 6 C-3 4.68 -3 3.36 -3 2 C-2.01 2 -1.02 2 0 2 C0 1.34 0 0.68 0 0 Z " fill="#DBBC30" transform="translate(269,383)"/>
<path d="M0 0 C1.98 1.65 3.96 3.3 6 5 C3.92446352 5.5534764 2.15634036 6 0 6 C0 4.02 0 2.04 0 0 Z " fill="#D9BA37" transform="translate(112,362)"/>
<path d="M0 0 C4.95 0.99 4.95 0.99 10 2 C10 2.33 10 2.66 10 3 C2.25 3.125 2.25 3.125 0 2 C0 1.34 0 0.68 0 0 Z " fill="#44BBDD" transform="translate(137,250)"/>
<path d="M0 0 C0.99 0 1.98 0 3 0 C3 0.66 3 1.32 3 2 C3.66 2.33 4.32 2.66 5 3 C4.34 3 3.68 3 3 3 C3 3.66 3 4.32 3 5 C1.35 4.67 -0.3 4.34 -2 4 C-1.34 2.68 -0.68 1.36 0 0 Z " fill="#1F6EA2" transform="translate(163,234)"/>
<path d="M0 0 C0.99 0 1.98 0 3 0 C2.46930939 3.82097239 1.50298434 6.06171403 -1 9 C-0.67 6.03 -0.34 3.06 0 0 Z " fill="#236A97" transform="translate(90,229)"/>
<path d="M0 0 C1.65 0.33 3.3 0.66 5 1 C5 1.66 5 2.32 5 3 C0.375 5.125 0.375 5.125 -3 4 C-1.68 3.67 -0.36 3.34 1 3 C0.67 2.01 0.34 1.02 0 0 Z " fill="#D9B729" transform="translate(182,72)"/>
<path d="M0 0 C0.99 0.33 1.98 0.66 3 1 C3.33 2.65 3.66 4.3 4 6 C3.01 6 2.02 6 1 6 C0.67 4.02 0.34 2.04 0 0 Z " fill="#2D719E" transform="translate(90,272)"/>
<path d="M0 0 C0.66 0.33 1.32 0.66 2 1 C2.33 1.99 2.66 2.98 3 4 C1.68 4.33 0.36 4.66 -1 5 C-1 4.34 -1 3.68 -1 3 C-1.66 3 -2.32 3 -3 3 C-3 2.34 -3 1.68 -3 1 C-2.01 0.67 -1.02 0.34 0 0 Z " fill="#216E9B" transform="translate(131,218)"/>
<path d="M0 0 C3.3 0.99 6.6 1.98 10 3 C10 3.33 10 3.66 10 4 C7.03 3.67 4.06 3.34 1 3 C0.67 2.01 0.34 1.02 0 0 Z " fill="#247197" transform="translate(324,126)"/>
<path d="M0 0 C0.99 0.99 1.98 1.98 3 3 C1.68 4.32 0.36 5.64 -1 7 C-1.04254356 5.00045254 -1.04080783 2.99958364 -1 1 C-0.67 0.67 -0.34 0.34 0 0 Z " fill="#E0B931" transform="translate(129,102)"/>
</svg>
